<svg id="visual" viewBox="0 0 900 600" width="900" height="600" xmlns="http://www.w3.org/2000/svg" xmlns:xlink="http://www.w3.org/1999/xlink" version="1.1"><rect x="0" y="0" width="900" height="600" fill="#001122"></rect><path d="M0 315L7.8 318.7C15.7 322.3 31.3 329.7 47.2 324.3C63 319 79 301 94.8 294.5C110.7 288 126.3 293 142 300.8C157.7 308.7 173.3 319.3 189.2 311.2C205 303 221 276 236.8 300.5C252.7 325 268.3 401 284.2 405.2C300 409.3 316 341.7 331.8 304.8C347.7 268 363.3 262 379 290.5C394.7 319 410.3 382 426.2 390.7C442 399.3 458 353.7 473.8 354.5C489.7 355.3 505.3 402.7 521 398.7C536.7 394.7 552.3 339.3 568.2 309.7C584 280 600 276 615.8 290.2C631.7 304.3 647.3 336.7 663.2 340.7C679 344.7 695 320.3 710.8 302.7C726.7 285 742.3 274 758 287C773.7 300 789.3 337 805.2 344.5C821 352 837 330 852.8 318C868.7 306 884.3 304 892.2 303L900 302L900 601L892.2 601C884.3 601 868.7 601 852.8 601C837 601 821 601 805.2 601C789.3 601 773.7 601 758 601C742.3 601 726.7 601 710.8 601C695 601 679 601 663.2 601C647.3 601 631.7 601 615.8 601C600 601 584 601 568.2 601C552.3 601 536.7 601 521 601C505.3 601 489.7 601 473.8 601C458 601 442 601 426.2 601C410.3 601 394.7 601 379 601C363.3 601 347.7 601 331.8 601C316 601 300 601 284.2 601C268.3 601 252.7 601 236.8 601C221 601 205 601 189.2 601C173.3 601 157.7 601 142 601C126.3 601 110.7 601 94.8 601C79 601 63 601 47.2 601C31.3 601 15.7 601 7.8 601L0 601Z" fill="#0066FF" stroke-linecap="round" stroke-linejoin="miter"></path></svg>