<svg id="visual" viewBox="0 0 900 600" width="900" height="600" xmlns="http://www.w3.org/2000/svg" xmlns:xlink="http://www.w3.org/1999/xlink" version="1.1"><rect x="0" y="0" width="900" height="600" fill="#00203f"></rect><defs><linearGradient id="grad1_0" x1="33.3%" y1="0%" x2="100%" y2="100%"><stop offset="20%" stop-color="#00203f" stop-opacity="1"></stop><stop offset="80%" stop-color="#00203f" stop-opacity="1"></stop></linearGradient></defs><defs><linearGradient id="grad2_0" x1="0%" y1="0%" x2="66.7%" y2="100%"><stop offset="20%" stop-color="#00203f" stop-opacity="1"></stop><stop offset="80%" stop-color="#00203f" stop-opacity="1"></stop></linearGradient></defs><g transform="translate(900, 0)"><path d="M0 216.3C-23.5 215.6 -47 214.9 -66.9 205.7C-86.7 196.6 -102.7 179 -119.3 164.2C-135.9 149.4 -153 137.4 -167.5 121.7C-182 105.9 -193.9 86.4 -201.6 65.5C-209.3 44.6 -212.8 22.3 -216.3 0L0 0Z" fill="#6600FF"></path></g><g transform="translate(0, 600)"><path d="M0 -216.3C21.5 -207.7 43.1 -199.1 61.5 -189.3C79.9 -179.4 95.1 -168.3 115.8 -159.4C136.4 -150.4 162.5 -143.5 175 -127.2C187.5 -110.8 186.5 -84.9 191.2 -62.1C195.8 -39.3 206.1 -19.7 216.3 0L0 0Z" fill="#6600FF"></path></g></svg>