<svg id="visual" viewBox="0 0 900 450" width="900" height="450" xmlns="http://www.w3.org/2000/svg" xmlns:xlink="http://www.w3.org/1999/xlink" version="1.1"><rect x="0" y="0" width="900" height="450" fill="#00203f"></rect><path d="M0 268L21.5 267.2C43 266.3 86 264.7 128.8 270.3C171.7 276 214.3 289 257.2 300.2C300 311.3 343 320.7 385.8 318.5C428.7 316.3 471.3 302.7 514.2 299.5C557 296.3 600 303.7 642.8 302.3C685.7 301 728.3 291 771.2 286.2C814 281.3 857 281.7 878.5 281.8L900 282L900 451L878.5 451C857 451 814 451 771.2 451C728.3 451 685.7 451 642.8 451C600 451 557 451 514.2 451C471.3 451 428.7 451 385.8 451C343 451 300 451 257.2 451C214.3 451 171.7 451 128.8 451C86 451 43 451 21.5 451L0 451Z" fill="#fa7268"></path><path d="M0 331L21.5 325C43 319 86 307 128.8 304.5C171.7 302 214.3 309 257.2 317.5C300 326 343 336 385.8 334.8C428.7 333.7 471.3 321.3 514.2 313C557 304.7 600 300.3 642.8 305.7C685.7 311 728.3 326 771.2 332.3C814 338.7 857 336.3 878.5 335.2L900 334L900 451L878.5 451C857 451 814 451 771.2 451C728.3 451 685.7 451 642.8 451C600 451 557 451 514.2 451C471.3 451 428.7 451 385.8 451C343 451 300 451 257.2 451C214.3 451 171.7 451 128.8 451C86 451 43 451 21.5 451L0 451Z" fill="#ef5f67"></path><path d="M0 329L21.5 332.7C43 336.3 86 343.7 128.8 345.8C171.7 348 214.3 345 257.2 345.8C300 346.7 343 351.3 385.8 355.7C428.7 360 471.3 364 514.2 367.7C557 371.3 600 374.7 642.8 368.3C685.7 362 728.3 346 771.2 343.3C814 340.7 857 351.3 878.5 356.7L900 362L900 451L878.5 451C857 451 814 451 771.2 451C728.3 451 685.7 451 642.8 451C600 451 557 451 514.2 451C471.3 451 428.7 451 385.8 451C343 451 300 451 257.2 451C214.3 451 171.7 451 128.8 451C86 451 43 451 21.5 451L0 451Z" fill="#e34c67"></path><path d="M0 402L21.5 396.7C43 391.3 86 380.7 128.8 376C171.7 371.3 214.3 372.7 257.2 372.2C300 371.7 343 369.3 385.8 369.7C428.7 370 471.3 373 514.2 376.5C557 380 600 384 642.8 388.2C685.7 392.3 728.3 396.7 771.2 398.7C814 400.7 857 400.3 878.5 400.2L900 400L900 451L878.5 451C857 451 814 451 771.2 451C728.3 451 685.7 451 642.8 451C600 451 557 451 514.2 451C471.3 451 428.7 451 385.8 451C343 451 300 451 257.2 451C214.3 451 171.7 451 128.8 451C86 451 43 451 21.5 451L0 451Z" fill="#d53867"></path><path d="M0 415L21.5 415.5C43 416 86 417 128.8 414C171.7 411 214.3 404 257.2 402C300 400 343 403 385.8 406.5C428.7 410 471.3 414 514.2 414.5C557 415 600 412 642.8 408.2C685.7 404.3 728.3 399.7 771.2 398C814 396.3 857 397.7 878.5 398.3L900 399L900 451L878.5 451C857 451 814 451 771.2 451C728.3 451 685.7 451 642.8 451C600 451 557 451 514.2 451C471.3 451 428.7 451 385.8 451C343 451 300 451 257.2 451C214.3 451 171.7 451 128.8 451C86 451 43 451 21.5 451L0 451Z" fill="#c62368"></path></svg>