<svg id="visual" viewBox="0 0 960 540" width="960" height="540" xmlns="http://www.w3.org/2000/svg" xmlns:xlink="http://www.w3.org/1999/xlink" version="1.1"><rect x="0" y="0" width="960" height="540" fill="#00203f"></rect><defs><linearGradient id="grad1_0" x1="43.8%" y1="0%" x2="100%" y2="100%"><stop offset="14.444444444444446%" stop-color="#6600ff" stop-opacity="1"></stop><stop offset="85.55555555555554%" stop-color="#6600ff" stop-opacity="1"></stop></linearGradient></defs><defs><linearGradient id="grad1_1" x1="43.8%" y1="0%" x2="100%" y2="100%"><stop offset="14.444444444444446%" stop-color="#6600ff" stop-opacity="1"></stop><stop offset="85.55555555555554%" stop-color="#0033c8" stop-opacity="1"></stop></linearGradient></defs><defs><linearGradient id="grad1_2" x1="43.8%" y1="0%" x2="100%" y2="100%"><stop offset="14.444444444444446%" stop-color="#002f85" stop-opacity="1"></stop><stop offset="85.55555555555554%" stop-color="#0033c8" stop-opacity="1"></stop></linearGradient></defs><defs><linearGradient id="grad1_3" x1="43.8%" y1="0%" x2="100%" y2="100%"><stop offset="14.444444444444446%" stop-color="#002f85" stop-opacity="1"></stop><stop offset="85.55555555555554%" stop-color="#00203f" stop-opacity="1"></stop></linearGradient></defs><defs><linearGradient id="grad2_0" x1="0%" y1="0%" x2="56.3%" y2="100%"><stop offset="14.444444444444446%" stop-color="#6600ff" stop-opacity="1"></stop><stop offset="85.55555555555554%" stop-color="#6600ff" stop-opacity="1"></stop></linearGradient></defs><defs><linearGradient id="grad2_1" x1="0%" y1="0%" x2="56.3%" y2="100%"><stop offset="14.444444444444446%" stop-color="#0033c8" stop-opacity="1"></stop><stop offset="85.55555555555554%" stop-color="#6600ff" stop-opacity="1"></stop></linearGradient></defs><defs><linearGradient id="grad2_2" x1="0%" y1="0%" x2="56.3%" y2="100%"><stop offset="14.444444444444446%" stop-color="#0033c8" stop-opacity="1"></stop><stop offset="85.55555555555554%" stop-color="#002f85" stop-opacity="1"></stop></linearGradient></defs><defs><linearGradient id="grad2_3" x1="0%" y1="0%" x2="56.3%" y2="100%"><stop offset="14.444444444444446%" stop-color="#00203f" stop-opacity="1"></stop><stop offset="85.55555555555554%" stop-color="#002f85" stop-opacity="1"></stop></linearGradient></defs><g transform="translate(960, 0)"><path d="M0 270C-24.3 269.5 -48.6 269.1 -69.9 260.8C-91.2 252.5 -109.4 236.5 -129.5 224.3C-149.6 212.1 -171.4 203.8 -189.5 189.5C-207.6 175.2 -222 154.9 -231.2 133.5C-240.5 112.1 -244.6 89.5 -250.2 67C-255.8 44.6 -262.9 22.3 -270 0L0 0Z" fill="#002862"></path><path d="M0 202.5C-18.2 202.1 -36.4 201.8 -52.4 195.6C-68.4 189.4 -82.1 177.4 -97.1 168.2C-112.2 159.1 -128.5 152.9 -142.1 142.1C-155.7 131.4 -166.5 116.2 -173.4 100.1C-180.4 84.1 -183.4 67.1 -187.6 50.3C-191.8 33.4 -197.2 16.7 -202.5 0L0 0Z" fill="#0033a7"></path><path d="M0 135C-12.1 134.8 -24.3 134.5 -34.9 130.4C-45.6 126.3 -54.7 118.2 -64.7 112.2C-74.8 106.1 -85.7 101.9 -94.8 94.8C-103.8 87.6 -111 77.5 -115.6 66.8C-120.2 56 -122.3 44.7 -125.1 33.5C-127.9 22.3 -131.4 11.1 -135 0L0 0Z" fill="#282ae6"></path><path d="M0 67.5C-6.1 67.4 -12.1 67.3 -17.5 65.2C-22.8 63.1 -27.4 59.1 -32.4 56.1C-37.4 53 -42.8 51 -47.4 47.4C-51.9 43.8 -55.5 38.7 -57.8 33.4C-60.1 28 -61.1 22.4 -62.5 16.8C-63.9 11.1 -65.7 5.6 -67.5 0L0 0Z" fill="#6600ff"></path></g><g transform="translate(0, 540)"><path d="M0 -270C22.5 -264.2 45 -258.4 67.8 -253.1C90.6 -247.7 113.6 -242.9 134.5 -233C155.4 -223 174.1 -208 190.9 -190.9C207.7 -173.9 222.7 -154.7 231.2 -133.5C239.8 -112.3 241.9 -88.9 247.3 -66.3C252.7 -43.7 261.3 -21.8 270 0L0 0Z" fill="#002862"></path><path d="M0 -202.5C16.9 -198.1 33.8 -193.8 50.9 -189.8C67.9 -185.8 85.2 -182.2 100.9 -174.7C116.5 -167.3 130.6 -156 143.2 -143.2C155.8 -130.4 167 -116.1 173.4 -100.1C179.8 -84.2 181.4 -66.6 185.5 -49.7C189.5 -32.7 196 -16.4 202.5 0L0 0Z" fill="#0033a7"></path><path d="M0 -135C11.3 -132.1 22.5 -129.2 33.9 -126.5C45.3 -123.9 56.8 -121.5 67.2 -116.5C77.7 -111.5 87 -104 95.5 -95.5C103.9 -86.9 111.3 -77.4 115.6 -66.8C119.9 -56.1 120.9 -44.4 123.6 -33.1C126.3 -21.8 130.7 -10.9 135 0L0 0Z" fill="#282ae6"></path><path d="M0 -67.5C5.6 -66 11.3 -64.6 17 -63.3C22.6 -61.9 28.4 -60.7 33.6 -58.2C38.8 -55.8 43.5 -52 47.7 -47.7C51.9 -43.5 55.7 -38.7 57.8 -33.4C59.9 -28.1 60.5 -22.2 61.8 -16.6C63.2 -10.9 65.3 -5.5 67.5 0L0 0Z" fill="#6600ff"></path></g></svg>