<svg id="visual" viewBox="0 0 900 600" width="900" height="600" xmlns="http://www.w3.org/2000/svg" xmlns:xlink="http://www.w3.org/1999/xlink" version="1.1"><path d="M0 277L13.7 249C27.3 221 54.7 165 82 139C109.3 113 136.7 117 163.8 132C191 147 218 173 245.2 184C272.3 195 299.7 191 327 180C354.3 169 381.7 151 409 151C436.3 151 463.7 169 491 177C518.3 185 545.7 183 573 191C600.3 199 627.7 217 654.8 222C682 227 709 219 736.2 195C763.3 171 790.7 131 818 117C845.3 103 872.7 115 886.3 121L900 127L900 0L886.3 0C872.7 0 845.3 0 818 0C790.7 0 763.3 0 736.2 0C709 0 682 0 654.8 0C627.7 0 600.3 0 573 0C545.7 0 518.3 0 491 0C463.7 0 436.3 0 409 0C381.7 0 354.3 0 327 0C299.7 0 272.3 0 245.2 0C218 0 191 0 163.8 0C136.7 0 109.3 0 82 0C54.7 0 27.3 0 13.7 0L0 0Z" fill="#06437a"></path><path d="M0 367L13.7 372C27.3 377 54.7 387 82 377C109.3 367 136.7 337 163.8 327C191 317 218 327 245.2 341C272.3 355 299.7 373 327 366C354.3 359 381.7 327 409 318C436.3 309 463.7 323 491 330C518.3 337 545.7 337 573 342C600.3 347 627.7 357 654.8 358C682 359 709 351 736.2 341C763.3 331 790.7 319 818 315C845.3 311 872.7 315 886.3 317L900 319L900 125L886.3 119C872.7 113 845.3 101 818 115C790.7 129 763.3 169 736.2 193C709 217 682 225 654.8 220C627.7 215 600.3 197 573 189C545.7 181 518.3 183 491 175C463.7 167 436.3 149 409 149C381.7 149 354.3 167 327 178C299.7 189 272.3 193 245.2 182C218 171 191 145 163.8 130C136.7 115 109.3 111 82 137C54.7 163 27.3 219 13.7 247L0 275Z" fill="#001f3b"></path><path d="M0 415L13.7 427C27.3 439 54.7 463 82 464C109.3 465 136.7 443 163.8 437C191 431 218 441 245.2 452C272.3 463 299.7 475 327 466C354.3 457 381.7 427 409 417C436.3 407 463.7 417 491 417C518.3 417 545.7 407 573 413C600.3 419 627.7 441 654.8 444C682 447 709 431 736.2 419C763.3 407 790.7 399 818 395C845.3 391 872.7 391 886.3 391L900 391L900 317L886.3 315C872.7 313 845.3 309 818 313C790.7 317 763.3 329 736.2 339C709 349 682 357 654.8 356C627.7 355 600.3 345 573 340C545.7 335 518.3 335 491 328C463.7 321 436.3 307 409 316C381.7 325 354.3 357 327 364C299.7 371 272.3 353 245.2 339C218 325 191 315 163.8 325C136.7 335 109.3 365 82 375C54.7 385 27.3 375 13.7 370L0 365Z" fill="#021a2f"></path><path d="M0 499L13.7 506C27.3 513 54.7 527 82 522C109.3 517 136.7 493 163.8 491C191 489 218 509 245.2 520C272.3 531 299.7 533 327 518C354.3 503 381.7 471 409 468C436.3 465 463.7 491 491 497C518.3 503 545.7 489 573 495C600.3 501 627.7 527 654.8 531C682 535 709 517 736.2 506C763.3 495 790.7 491 818 486C845.3 481 872.7 475 886.3 472L900 469L900 389L886.3 389C872.7 389 845.3 389 818 393C790.7 397 763.3 405 736.2 417C709 429 682 445 654.8 442C627.7 439 600.3 417 573 411C545.7 405 518.3 415 491 415C463.7 415 436.3 405 409 415C381.7 425 354.3 455 327 464C299.7 473 272.3 461 245.2 450C218 439 191 429 163.8 435C136.7 441 109.3 463 82 462C54.7 461 27.3 437 13.7 425L0 413Z" fill="#001f3b"></path><path d="M0 601L13.7 601C27.3 601 54.7 601 82 601C109.3 601 136.7 601 163.8 601C191 601 218 601 245.2 601C272.3 601 299.7 601 327 601C354.3 601 381.7 601 409 601C436.3 601 463.7 601 491 601C518.3 601 545.7 601 573 601C600.3 601 627.7 601 654.8 601C682 601 709 601 736.2 601C763.3 601 790.7 601 818 601C845.3 601 872.7 601 886.3 601L900 601L900 467L886.3 470C872.7 473 845.3 479 818 484C790.7 489 763.3 493 736.2 504C709 515 682 533 654.8 529C627.7 525 600.3 499 573 493C545.7 487 518.3 501 491 495C463.7 489 436.3 463 409 466C381.7 469 354.3 501 327 516C299.7 531 272.3 529 245.2 518C218 507 191 487 163.8 489C136.7 491 109.3 515 82 520C54.7 525 27.3 511 13.7 504L0 497Z" fill="#06437a"></path></svg>